<svg width="60" height="60" viewBox="0 0 60 60" fill="none" xmlns="http://www.w3.org/2000/svg">
<circle cx="30" cy="30" r="29.5" fill="#283131" stroke="#10FFFE"/>
<path d="M18.1747 34.1534C17.7599 34.1534 17.3835 34.0753 17.0455 33.919C16.7074 33.7599 16.4389 33.5312 16.2401 33.233C16.0412 32.9318 15.9418 32.5682 15.9418 32.142C15.9418 31.767 16.0156 31.4631 16.1634 31.2301C16.3111 30.9943 16.5085 30.8097 16.7557 30.6761C17.0028 30.5426 17.2756 30.4432 17.5739 30.3778C17.875 30.3097 18.1776 30.2557 18.4815 30.2159C18.8793 30.1648 19.2017 30.1264 19.4489 30.1009C19.6989 30.0724 19.8807 30.0256 19.9943 29.9602C20.1108 29.8949 20.169 29.7812 20.169 29.6193V29.5852C20.169 29.1648 20.054 28.8381 19.8239 28.6051C19.5966 28.3722 19.2514 28.2557 18.7884 28.2557C18.3082 28.2557 17.9318 28.3608 17.6591 28.571C17.3864 28.7812 17.1946 29.0057 17.0838 29.2443L16.1293 28.9034C16.2997 28.5057 16.527 28.196 16.8111 27.9744C17.098 27.75 17.4105 27.5937 17.7486 27.5057C18.0895 27.4148 18.4247 27.3693 18.7543 27.3693C18.9645 27.3693 19.206 27.3949 19.4787 27.446C19.7543 27.4943 20.0199 27.5952 20.2756 27.7486C20.5341 27.902 20.7486 28.1335 20.919 28.4432C21.0895 28.7528 21.1747 29.1676 21.1747 29.6875V34H20.169V33.1136H20.1179C20.0497 33.2557 19.9361 33.4077 19.777 33.5696C19.6179 33.7315 19.4063 33.8693 19.142 33.983C18.8778 34.0966 18.5554 34.1534 18.1747 34.1534ZM18.3281 33.25C18.7259 33.25 19.0611 33.1719 19.3338 33.0156C19.6094 32.8594 19.8168 32.6577 19.956 32.4105C20.098 32.1634 20.169 31.9034 20.169 31.6307V30.7102C20.1264 30.7614 20.0327 30.8082 19.8878 30.8509C19.7457 30.8906 19.581 30.9261 19.3935 30.9574C19.2088 30.9858 19.0284 31.0114 18.8523 31.0341C18.679 31.054 18.5384 31.071 18.4304 31.0852C18.169 31.1193 17.9247 31.1747 17.6974 31.2514C17.473 31.3253 17.2912 31.4375 17.152 31.5881C17.0156 31.7358 16.9474 31.9375 16.9474 32.1932C16.9474 32.5426 17.0767 32.8068 17.3352 32.9858C17.5966 33.1619 17.9276 33.25 18.3281 33.25ZM27.1353 31.3239V27.4545H28.141V34H27.1353V32.892H27.0671C26.9137 33.2244 26.6751 33.5071 26.3512 33.7401C26.0273 33.9702 25.6183 34.0852 25.1239 34.0852C24.7148 34.0852 24.3512 33.9957 24.033 33.8168C23.7148 33.6349 23.4648 33.3622 23.283 32.9986C23.1012 32.6321 23.0103 32.1705 23.0103 31.6136V27.4545H24.016V31.5455C24.016 32.0227 24.1495 32.4034 24.4165 32.6875C24.6864 32.9716 25.0302 33.1136 25.4478 33.1136C25.6978 33.1136 25.9521 33.0497 26.2106 32.9219C26.4719 32.794 26.6907 32.598 26.8668 32.3338C27.0458 32.0696 27.1353 31.733 27.1353 31.3239ZM32.8295 27.4545V28.3068H29.4375V27.4545H32.8295ZM30.4261 25.8864H31.4318V32.125C31.4318 32.4091 31.473 32.6222 31.5554 32.7642C31.6406 32.9034 31.7486 32.9972 31.8793 33.0455C32.0128 33.0909 32.1534 33.1136 32.3011 33.1136C32.4119 33.1136 32.5028 33.108 32.5739 33.0966C32.6449 33.0824 32.7017 33.071 32.7443 33.0625L32.9489 33.9659C32.8807 33.9915 32.7855 34.017 32.6634 34.0426C32.5412 34.071 32.3864 34.0852 32.1989 34.0852C31.9148 34.0852 31.6364 34.0241 31.3636 33.902C31.0938 33.7798 30.8693 33.5938 30.6903 33.3438C30.5142 33.0938 30.4261 32.7784 30.4261 32.3977V25.8864ZM34.3423 34V27.4545H35.3139V28.4432H35.3821C35.5014 28.1193 35.7173 27.8565 36.0298 27.6548C36.3423 27.4531 36.6946 27.3523 37.0866 27.3523C37.1605 27.3523 37.2528 27.3537 37.3636 27.3565C37.4744 27.3594 37.5582 27.3636 37.6151 27.3693V28.392C37.581 28.3835 37.5028 28.3707 37.3807 28.3537C37.2614 28.3338 37.1349 28.3239 37.0014 28.3239C36.6832 28.3239 36.3991 28.3906 36.1491 28.5241C35.902 28.6548 35.706 28.8366 35.5611 29.0696C35.419 29.2997 35.348 29.5625 35.348 29.858V34H34.3423ZM41.3523 34.1364C40.7216 34.1364 40.1776 33.9972 39.7202 33.7188C39.2656 33.4375 38.9148 33.0455 38.6676 32.5426C38.4233 32.0369 38.3011 31.4489 38.3011 30.7784C38.3011 30.108 38.4233 29.517 38.6676 29.0057C38.9148 28.4915 39.2585 28.0909 39.6989 27.804C40.142 27.5142 40.6591 27.3693 41.25 27.3693C41.5909 27.3693 41.9276 27.4261 42.2599 27.5398C42.5923 27.6534 42.8949 27.8381 43.1676 28.0938C43.4403 28.3466 43.6577 28.6818 43.8196 29.0994C43.9815 29.517 44.0625 30.0312 44.0625 30.642V31.0682H39.017V30.1989H43.0398C43.0398 29.8295 42.9659 29.5 42.8182 29.2102C42.6733 28.9205 42.4659 28.6918 42.196 28.5241C41.929 28.3565 41.6136 28.2727 41.25 28.2727C40.8494 28.2727 40.5028 28.3722 40.2102 28.571C39.9205 28.767 39.6974 29.0227 39.5412 29.3381C39.3849 29.6534 39.3068 29.9915 39.3068 30.3523V30.9318C39.3068 31.4261 39.392 31.8452 39.5625 32.1889C39.7358 32.5298 39.9759 32.7898 40.2827 32.9688C40.5895 33.1449 40.946 33.233 41.3523 33.233C41.6165 33.233 41.8551 33.196 42.0682 33.1222C42.2841 33.0455 42.4702 32.9318 42.6264 32.7812C42.7827 32.6278 42.9034 32.4375 42.9886 32.2102L43.9602 32.483C43.858 32.8125 43.6861 33.1023 43.4446 33.3523C43.2031 33.5994 42.9048 33.7926 42.5497 33.9318C42.1946 34.0682 41.7955 34.1364 41.3523 34.1364Z" fill="white"/>
</svg>
